Coordinates
version=1
nRows=12
nColumns=34
inDegrees=no

Units are S.I. units (second, meters, Newtons, ...)
If the header above contains a line with 'inDegrees', this indicates whether rotational values are in degrees (yes) or radians (no).

endheader
time	pelvis_tilt	pelvis_list	pelvis_rotation	pelvis_tx	pelvis_ty	pelvis_tz	hip_flexion_r	hip_adduction_r	hip_rotation_r	knee_angle_r	ankle_angle_r	subtalar_angle_r	mtp_angle_r	hip_flexion_l	hip_adduction_l	hip_rotation_l	knee_angle_l	ankle_angle_l	subtalar_angle_l	mtp_angle_l	lumbar_extension	lumbar_bending	lumbar_rotation	arm_flex_r	arm_add_r	arm_rot_r	elbow_flex_r	pro_sup_r	arm_flex_l	arm_add_l	arm_rot_l	elbow_flex_l	pro_sup_l
4.43	-0.783172	0.0288152	0.0273626	-0.430545	0.666045	-0.603663	1.90301	-0.232805	0.0393424	1.38894	0.373091	-0.171335	-0.00241763	1.87193	-0.239269	-0.0810976	1.36779	0.376022	-0.0585975	-0.00241763	-0.487124	0.0374706	-0.106512	0.153618	-0.224456	0.0536008	2.45705	2.03033	-0.0841692	-0.220518	-0.474416	2.49757	1.9868
4.44	-0.784691	0.0284109	0.0266166	-0.425807	0.673109	-0.603605	1.88507	-0.228306	0.0351612	1.37193	0.379463	-0.155169	-0.00241763	1.85531	-0.233733	-0.082283	1.35109	0.380655	-0.0452976	-0.00241763	-0.479326	0.0361671	-0.105042	0.142563	-0.21636	0.0547454	2.45015	2.04068	-0.0812779	-0.211035	-0.463654	2.48642	2.00068
4.45	-0.785116	0.0281847	0.0290324	-0.421189	0.679966	-0.604185	1.86733	-0.228077	0.0328316	1.35622	0.385973	-0.138482	-0.00241763	1.83778	-0.223296	-0.0832192	1.3339	0.3843	-0.0348739	-0.00241763	-0.470435	0.0356193	-0.104701	0.129113	-0.210176	0.0536955	2.44503	2.04251	-0.0778038	-0.201803	-0.447136	2.47641	2.01077
4.46	-0.784204	0.028458	0.0306848	-0.416425	0.686896	-0.604648	1.84822	-0.227063	0.0306728	1.34032	0.392145	-0.121704	-0.00241763	1.81895	-0.214135	-0.0839999	1.31711	0.387544	-0.0240666	-0.00241763	-0.461362	0.0345648	-0.105738	0.11707	-0.203527	0.055606	2.43827	2.04244	-0.0766867	-0.193626	-0.432041	2.46691	2.01685
4.47	-0.7815	0.0284339	0.0276494	-0.411337	0.694164	-0.604284	1.8257	-0.219705	0.0269802	1.32246	0.396998	-0.106741	-0.00241763	1.79859	-0.212106	-0.0844139	1.30156	0.390693	-0.0109485	-0.00241763	-0.452759	0.0325339	-0.106215	0.109004	-0.195431	0.0632795	2.42764	2.04226	-0.0788422	-0.186861	-0.423135	2.45719	2.01759
4.48	-0.778439	0.0271178	0.0232016	-0.40621	0.701446	-0.603648	1.8021	-0.209992	0.0223301	1.30362	0.400207	-0.0939493	-0.00241763	1.77815	-0.211832	-0.0841413	1.2858	0.393019	0.000271419	-0.00241763	-0.442574	0.0310171	-0.103789	0.100103	-0.188291	0.0692128	2.41665	2.04899	-0.080358	-0.180938	-0.413176	2.4463	2.01927
4.49	-0.776703	0.024988	0.0215057	-0.401298	0.708397	-0.603408	1.78053	-0.203519	0.0179682	1.28535	0.402731	-0.0820278	-0.00241763	1.75898	-0.206999	-0.082974	1.26829	0.394302	0.00765582	-0.00241763	-0.429201	0.0307968	-0.100936	0.0878585	-0.183175	0.0720179	2.40895	2.05096	-0.0809427	-0.175538	-0.398312	2.43659	2.01757
4.5	-0.775374	0.0233403	0.0214469	-0.396414	0.71523	-0.603408	1.75986	-0.199006	0.0146233	1.26732	0.405212	-0.0704303	-0.00241763	1.74004	-0.199853	-0.081332	1.24997	0.394818	0.0150302	-0.00241763	-0.414238	0.0307105	-0.10056	0.0755813	-0.178828	0.0755658	2.40195	2.05252	-0.0832907	-0.170952	-0.383915	2.42866	2.0175
4.51	-0.772496	0.0223035	0.0211533	-0.391333	0.722292	-0.603426	1.73737	-0.194287	0.0119442	1.24871	0.407467	-0.0588053	-0.00241763	1.71939	-0.19354	-0.0797942	1.23194	0.394989	0.0247826	-0.00241763	-0.399951	0.0304035	-0.101307	0.065092	-0.175041	0.0800726	2.39411	2.05558	-0.0865757	-0.167112	-0.37114	2.42098	2.01857
4.52	-0.767474	0.0210955	0.0213471	-0.386049	0.729642	-0.603582	1.71217	-0.19071	0.00866452	1.22953	0.409796	-0.0461039	-0.00241763	1.69621	-0.186839	-0.0784149	1.21363	0.395044	0.034961	-0.00241763	-0.387146	0.0309844	-0.101834	0.055353	-0.172558	0.0836606	2.38658	2.06174	-0.0885728	-0.163686	-0.358482	2.4122	2.02124
4.53	-0.760688	0.0195392	0.0225731	-0.380591	0.737204	-0.603898	1.68456	-0.188957	0.00430326	1.20994	0.412775	-0.0320998	-0.00241763	1.67062	-0.178871	-0.0770165	1.19443	0.395224	0.044471	-0.00241763	-0.375645	0.0326227	-0.10258	0.0458132	-0.1715	0.0874741	2.37979	2.0679	-0.0896125	-0.160933	-0.345615	2.40247	2.02834
4.54	-0.752776	0.0180804	0.0239096	-0.374962	0.744929	-0.60422	1.65517	-0.187277	-0.000187146	1.18965	0.415815	-0.0179665	-0.00241763	1.64317	-0.170877	-0.0754901	1.17439	0.395748	0.0546821	-0.00241763	-0.3646	0.034357	-0.102827	0.0364307	-0.171384	0.0917773	2.37284	2.07192	-0.0906856	-0.159149	-0.330746	2.39248	2.03258
